<?xml version="1.0" standalone="no"?>
<!DOCTYPE svg PUBLIC "-//W3C//DTD SVG 20010904//EN"
 "http://www.w3.org/TR/2001/REC-SVG-20010904/DTD/svg10.dtd">
<svg version="1.0" xmlns="http://www.w3.org/2000/svg"
 width="750.000000pt" height="275.000000pt" viewBox="0 0 750.000000 275.000000"
 preserveAspectRatio="xMidYMid meet">

<g transform="translate(0.000000,275.000000) scale(0.100000,-0.100000)"
fill="#000000" stroke="none">
<path d="M3275 2715 c-202 -49 -334 -198 -381 -430 -8 -38 -19 -92 -24 -120
-6 -27 -18 -88 -28 -135 l-17 -85 -175 -5 -175 -5 -6 -55 c-4 -30 -10 -74 -14
-97 l-8 -43 161 0 c89 0 163 -3 165 -7 5 -9 -2 -58 -31 -198 -11 -55 -22 -111
-25 -125 -2 -14 -14 -70 -25 -125 -11 -55 -22 -111 -25 -125 -39 -212 -132
-649 -148 -695 -52 -146 -146 -216 -298 -221 l-84 -2 -12 -39 c-24 -77 -45
-150 -45 -156 0 -11 111 -28 192 -29 189 -2 355 86 442 234 43 73 58 122 91
288 8 41 37 185 65 320 28 135 55 265 59 290 5 25 18 90 29 145 11 55 22 111
25 125 20 104 59 288 63 303 5 15 23 17 198 17 l192 0 18 83 c10 45 20 90 23
100 4 16 -10 17 -186 17 -104 0 -192 3 -194 8 -7 12 52 289 75 350 26 70 104
155 166 182 29 13 73 21 123 23 43 2 81 5 83 8 6 6 36 111 45 159 6 35 6 35
-39 47 -57 15 -210 15 -275 -2z"/>
<path d="M3760 2202 c0 -16 -324 -1515 -336 -1554 -5 -17 5 -18 120 -18 69 0
126 4 126 8 0 4 76 359 170 787 93 429 170 783 170 788 0 4 -56 7 -125 7 -113
0 -125 -2 -125 -18z"/>
<path d="M1920 1410 l0 -790 125 0 125 0 0 790 0 790 -125 0 -125 0 0 -790z"/>
<path d="M445 1696 c-68 -22 -120 -53 -158 -95 -20 -23 -39 -41 -42 -41 -3 0
-5 27 -5 60 l0 60 -120 0 -120 0 0 -530 0 -530 125 0 125 0 0 333 c0 389 3
410 74 475 63 58 135 75 221 51 51 -14 110 -73 124 -124 7 -26 11 -165 11
-387 l0 -348 125 0 125 0 0 336 c0 238 4 349 12 378 17 55 91 131 143 145 123
34 236 -23 264 -132 7 -30 11 -163 11 -386 l0 -341 120 0 120 0 0 383 c0 309
-3 394 -15 441 -29 110 -85 180 -188 233 -68 35 -213 44 -299 19 -70 -20 -144
-70 -183 -124 -16 -22 -32 -41 -35 -41 -3 0 -18 19 -33 44 -32 51 -101 99
-171 120 -60 18 -176 18 -231 1z"/>
<path d="M5385 1653 c3 -16 16 -129 30 -253 31 -272 51 -449 73 -635 l17 -140
129 0 128 0 144 270 c220 416 259 484 265 477 12 -14 49 -233 105 -612 22
-155 6 -140 147 -140 l122 0 255 516 c140 284 256 521 258 527 2 9 -31 12
-117 12 l-120 0 -34 -75 c-101 -223 -302 -630 -312 -630 -6 0 -30 136 -60 350
l-49 350 -123 0 c-68 0 -126 0 -130 0 -8 -1 -61 -96 -281 -500 -121 -221 -118
-217 -126 -209 -4 3 -18 161 -32 350 -14 189 -27 350 -29 357 -3 9 -39 12
-134 12 l-130 0 4 -27z"/>
<path d="M7203 1673 c27 -4 27 -5 27 -79 0 -43 4 -74 10 -74 6 0 10 31 10 74
0 74 0 75 28 79 15 2 -2 4 -38 4 -36 0 -53 -2 -37 -4z"/>
<path d="M7342 1593 l2 -88 6 80 c3 44 7 74 8 66 1 -8 4 -12 7 -9 8 7 -5 38
-16 38 -5 0 -8 -39 -7 -87z"/>
<path d="M7444 1644 c-8 -20 -13 -38 -11 -41 3 -2 9 10 15 26 6 17 12 31 14
31 2 0 2 -31 0 -70 -3 -47 -1 -70 7 -70 7 0 11 28 11 80 0 88 -12 102 -36 44z"/>
<path d="M7370 1625 c0 -5 5 -17 10 -25 5 -8 10 -10 10 -5 0 6 -5 17 -10 25
-5 8 -10 11 -10 5z"/>
<path d="M7407 1553 c-4 -3 -7 -11 -7 -17 0 -6 5 -5 12 2 6 6 9 14 7 17 -3 3
-9 2 -12 -2z"/>
<path d="M4972 1444 c-40 -30 -72 -58 -70 -62 58 -110 75 -187 58 -271 -26
-139 -138 -254 -266 -276 -21 -4 -47 -9 -56 -12 -16 -4 -18 4 -18 61 l0 66
-137 -102 c-76 -55 -144 -107 -152 -114 -11 -10 -3 -18 49 -44 298 -150 647
-3 757 319 30 89 32 232 3 322 -20 65 -75 169 -88 168 -4 0 -40 -25 -80 -55z"/>
</g>
</svg>
